# xmcd CD database file
#
# Track frame offsets:
#	150
#	28702
#	66292
#	91300
#	111277
#	123155
#	151545
#	193377
#	218300
#
# Disc length: 4440 seconds
#
# Revision: 0
# Processed by: cddbd v1.5.2PL0 Copyright (c) Steve Scherf et al.
# Submitted via: CDex 1.70beta2
#
DISCID=70115609
DTITLE=Thierry Lang and Friends - Reflections Volume 3
DYEAR=2004
DGENRE=Jazz
TTITLE0=Chocolate Blues
TTITLE1=Nunzi
TTITLE2=Boulevard Pérolles
TTITLE3=Only Wood
TTITLE4=A Star To My Father
TTITLE5=Henry's Waltz
TTITLE6=Toy Box
TTITLE7=Prayer For Peace
TTITLE8=Data
EXTD=YEAR: 2004
EXTT0=
EXTT1=
EXTT2=
EXTT3=
EXTT4=
EXTT5=
EXTT6=
EXTT7=
EXTT8=
PLAYORDER=
